<svg width="80" height="80" viewBox="0 0 80 80" fill="none" xmlns="http://www.w3.org/2000/svg">
<g clip-path="url(#clip0_713_867)">
<path fill-rule="evenodd" clip-rule="evenodd" d="M0.859896 79.1399C1.32872 79.6086 1.96449 79.8719 2.6274 79.8719C3.29031 79.8719 3.92608 79.6086 4.3949 79.1399L24.8749 58.6599V72.4999C24.8749 73.1629 25.1383 73.7988 25.6071 74.2677C26.076 74.7365 26.7119 74.9999 27.3749 74.9999C28.0379 74.9999 28.6738 74.7365 29.1427 74.2677C29.6115 73.7988 29.8749 73.1629 29.8749 72.4999V52.6249C29.8749 51.9618 29.6115 51.326 29.1427 50.8571C28.6738 50.3883 28.0379 50.1249 27.3749 50.1249H7.4999C6.83685 50.1249 6.20097 50.3883 5.73213 50.8571C5.26329 51.326 4.9999 51.9618 4.9999 52.6249C4.9999 53.2879 5.26329 53.9238 5.73213 54.3927C6.20097 54.8615 6.83685 55.1249 7.4999 55.1249H21.3399L0.859896 75.6049C0.391218 76.0737 0.12793 76.7095 0.12793 77.3724C0.12793 78.0353 0.391218 78.6711 0.859896 79.1399ZM79.1399 0.859896C78.6711 0.391218 78.0353 0.12793 77.3724 0.12793C76.7095 0.12793 76.0737 0.391218 75.6049 0.859896L55.1249 21.3399V7.4999C55.1249 6.83685 54.8615 6.20097 54.3927 5.73213C53.9238 5.26329 53.2879 4.9999 52.6249 4.9999C51.9618 4.9999 51.326 5.26329 50.8571 5.73213C50.3883 6.20097 50.1249 6.83685 50.1249 7.4999V27.3749C50.1249 28.0379 50.3883 28.6738 50.8571 29.1427C51.326 29.6115 51.9618 29.8749 52.6249 29.8749H72.4999C73.1629 29.8749 73.7988 29.6115 74.2677 29.1427C74.7365 28.6738 74.9999 28.0379 74.9999 27.3749C74.9999 26.7119 74.7365 26.076 74.2677 25.6071C73.7988 25.1383 73.1629 24.8749 72.4999 24.8749H58.6599L79.1399 4.3949C79.6086 3.92608 79.8719 3.29031 79.8719 2.6274C79.8719 1.96449 79.6086 1.32872 79.1399 0.859896Z" fill="#6574CD"/>
</g>
<defs>
<clipPath id="clip0_713_867">
<rect width="80" height="80" fill="white"/>
</clipPath>
</defs>
</svg>
