<svg width="60" height="60" viewBox="0 0 60 60" fill="none" xmlns="http://www.w3.org/2000/svg">
<path d="M31.3275 55.7026C31.1533 55.8772 30.9464 56.0157 30.7186 56.1102C30.4908 56.2048 30.2466 56.2534 30 56.2534C29.7534 56.2534 29.5092 56.2048 29.2814 56.1102C29.0536 56.0157 28.8467 55.8772 28.6725 55.7026L21.1725 48.2026C20.8204 47.8505 20.6226 47.373 20.6226 46.8751C20.6226 46.3771 20.8204 45.8996 21.1725 45.5476C21.5246 45.1955 22.0021 44.9977 22.5 44.9977C22.9979 44.9977 23.4754 45.1955 23.8275 45.5476L28.125 49.8488V10.1513L23.8275 14.4526C23.6532 14.6269 23.4462 14.7652 23.2184 14.8595C22.9907 14.9539 22.7465 15.0024 22.5 15.0024C22.0021 15.0024 21.5246 14.8046 21.1725 14.4526C20.9982 14.2782 20.8599 14.0713 20.7655 13.8435C20.6712 13.6157 20.6226 13.3716 20.6226 13.1251C20.6226 12.6271 20.8204 12.1496 21.1725 11.7976L28.6725 4.29756C28.8467 4.12294 29.0536 3.98441 29.2814 3.88988C29.5092 3.79536 29.7534 3.7467 30 3.7467C30.2466 3.7467 30.4908 3.79536 30.7186 3.88988C30.9464 3.98441 31.1533 4.12294 31.3275 4.29756L38.8275 11.7976C39.0018 11.9719 39.1401 12.1788 39.2345 12.4066C39.3288 12.6344 39.3774 12.8785 39.3774 13.1251C39.3774 13.3716 39.3288 13.6157 39.2345 13.8435C39.1401 14.0713 39.0018 14.2782 38.8275 14.4526C38.6532 14.6269 38.4462 14.7652 38.2184 14.8595C37.9907 14.9539 37.7465 15.0024 37.5 15.0024C37.2534 15.0024 37.0093 14.9539 36.7815 14.8595C36.5538 14.7652 36.3468 14.6269 36.1725 14.4526L31.875 10.1513V49.8488L36.1725 45.5476C36.5246 45.1955 37.0021 44.9977 37.5 44.9977C37.9979 44.9977 38.4754 45.1955 38.8275 45.5476C39.1796 45.8996 39.3774 46.3771 39.3774 46.8751C39.3774 47.373 39.1796 47.8505 38.8275 48.2026L31.3275 55.7026Z" fill="#6574CD"/>
</svg>
