<svg width="80" height="80" viewBox="0 0 80 80" fill="none" xmlns="http://www.w3.org/2000/svg">
<g clip-path="url(#clip0_722_4)">
<path fill-rule="evenodd" clip-rule="evenodd" d="M5 40C5 49.2826 8.68749 58.185 15.2513 64.7487C21.815 71.3125 30.7174 75 40 75C49.2826 75 58.185 71.3125 64.7487 64.7487C71.3125 58.185 75 49.2826 75 40C75 30.7174 71.3125 21.815 64.7487 15.2513C58.185 8.68749 49.2826 5 40 5C30.7174 5 21.815 8.68749 15.2513 15.2513C8.68749 21.815 5 30.7174 5 40ZM80 40C80 50.6087 75.7857 60.7828 68.2843 68.2843C60.7828 75.7857 50.6087 80 40 80C29.3913 80 19.2172 75.7857 11.7157 68.2843C4.21427 60.7828 0 50.6087 0 40C0 29.3913 4.21427 19.2172 11.7157 11.7157C19.2172 4.21427 29.3913 0 40 0C50.6087 0 60.7828 4.21427 68.2843 11.7157C75.7857 19.2172 80 29.3913 80 40ZM42.5 22.5C42.5 21.837 42.2366 21.2011 41.7678 20.7322C41.2989 20.2634 40.663 20 40 20C39.337 20 38.7011 20.2634 38.2322 20.7322C37.7634 21.2011 37.5 21.837 37.5 22.5V51.465L26.77 40.73C26.3006 40.2606 25.6639 39.9968 25 39.9968C24.3361 39.9968 23.6994 40.2606 23.23 40.73C22.7606 41.1994 22.4968 41.8361 22.4968 42.5C22.4968 43.1639 22.7606 43.8006 23.23 44.27L38.23 59.27C38.4622 59.5028 38.7381 59.6875 39.0418 59.8136C39.3456 59.9396 39.6712 60.0045 40 60.0045C40.3288 60.0045 40.6544 59.9396 40.9582 59.8136C41.2619 59.6875 41.5378 59.5028 41.77 59.27L56.77 44.27C57.2394 43.8006 57.5032 43.1639 57.5032 42.5C57.5032 41.8361 57.2394 41.1994 56.77 40.73C56.3006 40.2606 55.6639 39.9968 55 39.9968C54.3361 39.9968 53.6994 40.2606 53.23 40.73L42.5 51.465V22.5Z" fill="#6574CD"/>
</g>
<defs>
<clipPath id="clip0_722_4">
<rect width="80" height="80" fill="white"/>
</clipPath>
</defs>
</svg>
