<svg width="60" height="60" viewBox="0 0 60 60" fill="none" xmlns="http://www.w3.org/2000/svg">
<path fill-rule="evenodd" clip-rule="evenodd" d="M3.75 30C3.75 29.5027 3.94754 29.0258 4.29917 28.6742C4.65081 28.3225 5.12772 28.125 5.625 28.125H54.375C54.8723 28.125 55.3492 28.3225 55.7008 28.6742C56.0525 29.0258 56.25 29.5027 56.25 30C56.25 30.4973 56.0525 30.9742 55.7008 31.3258C55.3492 31.6775 54.8723 31.875 54.375 31.875H5.625C5.12772 31.875 4.65081 31.6775 4.29917 31.3258C3.94754 30.9742 3.75 30.4973 3.75 30ZM30 0C30.4973 0 30.9742 0.197544 31.3258 0.549175C31.6775 0.900806 31.875 1.37772 31.875 1.875V16.0988L36.1725 11.7975C36.5246 11.4454 37.0021 11.2476 37.5 11.2476C37.9979 11.2476 38.4754 11.4454 38.8275 11.7975C39.1796 12.1496 39.3774 12.6271 39.3774 13.125C39.3774 13.6229 39.1796 14.1004 38.8275 14.4525L31.3275 21.9525C31.1533 22.1271 30.9464 22.2656 30.7186 22.3602C30.4908 22.4547 30.2466 22.5034 30 22.5034C29.7534 22.5034 29.5092 22.4547 29.2814 22.3602C29.0536 22.2656 28.8467 22.1271 28.6725 21.9525L21.1725 14.4525C20.8204 14.1004 20.6226 13.6229 20.6226 13.125C20.6226 12.6271 20.8204 12.1496 21.1725 11.7975C21.5246 11.4454 22.0021 11.2476 22.5 11.2476C22.9979 11.2476 23.4754 11.4454 23.8275 11.7975L28.125 16.0988V1.875C28.125 1.37772 28.3225 0.900806 28.6742 0.549175C29.0258 0.197544 29.5027 0 30 0ZM28.125 43.9012L23.8275 48.2025C23.4754 48.5546 22.9979 48.7524 22.5 48.7524C22.0021 48.7524 21.5246 48.5546 21.1725 48.2025C20.8204 47.8504 20.6226 47.3729 20.6226 46.875C20.6226 46.3771 20.8204 45.8996 21.1725 45.5475L28.6725 38.0475C28.8467 37.8729 29.0536 37.7344 29.2814 37.6398C29.5092 37.5453 29.7534 37.4966 30 37.4966C30.2466 37.4966 30.4908 37.5453 30.7186 37.6398C30.9464 37.7344 31.1533 37.8729 31.3275 38.0475L38.8275 45.5475C39.1796 45.8996 39.3774 46.3771 39.3774 46.875C39.3774 47.3729 39.1796 47.8504 38.8275 48.2025C38.4754 48.5546 37.9979 48.7524 37.5 48.7524C37.0021 48.7524 36.5246 48.5546 36.1725 48.2025L31.875 43.9012V58.125C31.875 58.6223 31.6775 59.0992 31.3258 59.4508C30.9742 59.8025 30.4973 60 30 60C29.5027 60 29.0258 59.8025 28.6742 59.4508C28.3225 59.0992 28.125 58.6223 28.125 58.125V43.9012Z" fill="#6574CD"/>
</svg>
