<svg width="80" height="80" viewBox="0 0 80 80" fill="none" xmlns="http://www.w3.org/2000/svg">
<path d="M57.6699 35.0001H77.3299C77.5675 35.0002 77.8 35.068 78.0004 35.1955C78.2008 35.323 78.3608 35.5049 78.4615 35.72C78.5622 35.9351 78.5996 36.1745 78.5692 36.41C78.5388 36.6456 78.442 36.8676 78.2899 37.0501L68.4599 48.8501C68.3426 48.9908 68.1958 49.104 68.0299 49.1816C67.8641 49.2593 67.6831 49.2996 67.4999 49.2996C67.3168 49.2996 67.1358 49.2593 66.9699 49.1816C66.804 49.104 66.6572 48.9908 66.5399 48.8501L56.7099 37.0501C56.5579 36.8676 56.4611 36.6456 56.4307 36.41C56.4003 36.1745 56.4377 35.9351 56.5384 35.72C56.6391 35.5049 56.799 35.323 56.9994 35.1955C57.1998 35.068 57.4324 35.0002 57.6699 35.0001ZM2.66994 45.0001H22.3299C22.5675 45 22.8 44.9323 23.0004 44.8048C23.2008 44.6773 23.3608 44.4953 23.4615 44.2802C23.5622 44.0651 23.5996 43.8258 23.5692 43.5902C23.5388 43.3547 23.442 43.1326 23.2899 42.9501L13.4599 31.1501C13.3426 31.0094 13.1958 30.8963 13.0299 30.8186C12.864 30.7409 12.6831 30.7007 12.4999 30.7007C12.3168 30.7007 12.1358 30.7409 11.9699 30.8186C11.8041 30.8963 11.6573 31.0094 11.5399 31.1501L1.70994 42.9501C1.55793 43.1326 1.46106 43.3547 1.43068 43.5902C1.4003 43.8258 1.43766 44.0651 1.53839 44.2802C1.63912 44.4953 1.79905 44.6773 1.99945 44.8048C2.19985 44.9323 2.43242 45 2.66994 45.0001Z" fill="#6574CD"/>
<path fill-rule="evenodd" clip-rule="evenodd" d="M40 15.0002C32.24 15.0002 25.3 18.5352 20.715 24.0902C20.5103 24.3556 20.2543 24.577 19.9622 24.7415C19.6702 24.9059 19.3481 25.01 19.015 25.0474C18.6819 25.0849 18.3447 25.0549 18.0234 24.9595C17.7022 24.864 17.4034 24.7049 17.1448 24.4916C16.8863 24.2783 16.6733 24.0152 16.5184 23.718C16.3636 23.4207 16.2701 23.0953 16.2435 22.7612C16.217 22.4271 16.2579 22.0911 16.3638 21.7731C16.4697 21.4551 16.6384 21.1616 16.86 20.9102C20.521 16.4778 25.378 13.1902 30.8534 11.4385C36.3287 9.68669 42.192 9.54444 47.7459 11.0286C53.2998 12.5128 58.3105 15.561 62.1821 19.8106C66.0537 24.0602 68.6232 29.3324 69.585 35.0002H64.5C63.3474 29.3534 60.2791 24.2782 55.8146 20.6337C51.35 16.9891 45.7633 14.999 40 15.0002ZM15.5 45.0002C16.4466 49.6233 18.6818 53.8843 21.9474 57.2909C25.2131 60.6975 29.3758 63.1107 33.9549 64.2516C38.5339 65.3926 43.3423 65.2148 47.8245 63.7387C52.3067 62.2627 56.2799 59.5487 59.285 55.9102C59.4898 55.6448 59.7458 55.4233 60.0378 55.2589C60.3299 55.0944 60.652 54.9904 60.9851 54.953C61.3182 54.9155 61.6554 54.9454 61.9766 55.0409C62.2979 55.1364 62.5967 55.2955 62.8553 55.5088C63.1138 55.7221 63.3268 55.9852 63.4817 56.2824C63.6365 56.5797 63.73 56.905 63.7565 57.2391C63.7831 57.5732 63.7422 57.9093 63.6363 58.2273C63.5304 58.5453 63.3616 58.8387 63.14 59.0902C59.4791 63.5225 54.6221 66.8101 49.1467 68.5619C43.6713 70.3137 37.808 70.4559 32.2542 68.9717C26.7003 67.4875 21.6896 64.4394 17.818 60.1898C13.9464 55.9401 11.3769 50.6679 10.415 45.0002H15.5Z" fill="#6574CD"/>
</svg>
