<svg width="60" height="60" viewBox="0 0 60 60" fill="none" xmlns="http://www.w3.org/2000/svg">
<path fill-rule="evenodd" clip-rule="evenodd" d="M13.125 37.5C12.6277 37.5 12.1508 37.3025 11.7992 36.9508C11.4475 36.5992 11.25 36.1223 11.25 35.625V5.625C11.25 5.12772 11.4475 4.65081 11.7992 4.29917C12.1508 3.94754 12.6277 3.75 13.125 3.75H46.875C47.3723 3.75 47.8492 3.94754 48.2008 4.29917C48.5525 4.65081 48.75 5.12772 48.75 5.625V35.625C48.75 36.1223 48.5525 36.5992 48.2008 36.9508C47.8492 37.3025 47.3723 37.5 46.875 37.5H39.375C38.8777 37.5 38.4008 37.6975 38.0492 38.0492C37.6975 38.4008 37.5 38.8777 37.5 39.375C37.5 39.8723 37.6975 40.3492 38.0492 40.7008C38.4008 41.0525 38.8777 41.25 39.375 41.25H46.875C48.3668 41.25 49.7976 40.6574 50.8525 39.6025C51.9074 38.5476 52.5 37.1168 52.5 35.625V5.625C52.5 4.13316 51.9074 2.70242 50.8525 1.64752C49.7976 0.592632 48.3668 0 46.875 0L13.125 0C11.6332 0 10.2024 0.592632 9.14752 1.64752C8.09263 2.70242 7.5 4.13316 7.5 5.625V35.625C7.5 37.1168 8.09263 38.5476 9.14752 39.6025C10.2024 40.6574 11.6332 41.25 13.125 41.25H20.625C21.1223 41.25 21.5992 41.0525 21.9508 40.7008C22.3025 40.3492 22.5 39.8723 22.5 39.375C22.5 38.8777 22.3025 38.4008 21.9508 38.0492C21.5992 37.6975 21.1223 37.5 20.625 37.5H13.125Z" fill="#6574CD"/>
<path fill-rule="evenodd" clip-rule="evenodd" d="M28.6725 15.5476C28.8467 15.3729 29.0536 15.2344 29.2814 15.1399C29.5092 15.0454 29.7534 14.9967 30 14.9967C30.2466 14.9967 30.4908 15.0454 30.7186 15.1399C30.9464 15.2344 31.1533 15.3729 31.3275 15.5476L42.5775 26.7976C42.9296 27.1496 43.1274 27.6271 43.1274 28.1251C43.1274 28.623 42.9296 29.1005 42.5775 29.4526C42.2254 29.8046 41.7479 30.0024 41.25 30.0024C40.7521 30.0024 40.2746 29.8046 39.9225 29.4526L31.875 21.4013V54.3751C31.875 54.8723 31.6775 55.3492 31.3258 55.7009C30.9742 56.0525 30.4973 56.2501 30 56.2501C29.5027 56.2501 29.0258 56.0525 28.6742 55.7009C28.3225 55.3492 28.125 54.8723 28.125 54.3751V21.4013L20.0775 29.4526C19.7254 29.8046 19.2479 30.0024 18.75 30.0024C18.2521 30.0024 17.7746 29.8046 17.4225 29.4526C17.0704 29.1005 16.8726 28.623 16.8726 28.1251C16.8726 27.6271 17.0704 27.1496 17.4225 26.7976L28.6725 15.5476Z" fill="#6574CD"/>
</svg>
