<svg width="60" height="60" viewBox="0 0 60 60" fill="none" xmlns="http://www.w3.org/2000/svg">
<path d="M15 37.5C15 36.5054 15.3951 35.5516 16.0984 34.8484C16.8016 34.1451 17.7554 33.75 18.75 33.75C19.7446 33.75 20.6984 34.1451 21.4016 34.8484C22.1049 35.5516 22.5 36.5054 22.5 37.5V45C22.5 45.9946 22.1049 46.9484 21.4016 47.6516C20.6984 48.3549 19.7446 48.75 18.75 48.75C17.7554 48.75 16.8016 48.3549 16.0984 47.6516C15.3951 46.9484 15 45.9946 15 45V37.5ZM26.25 37.5C26.25 36.5054 26.6451 35.5516 27.3484 34.8484C28.0516 34.1451 29.0054 33.75 30 33.75C30.9946 33.75 31.9484 34.1451 32.6516 34.8484C33.3549 35.5516 33.75 36.5054 33.75 37.5V45C33.75 45.9946 33.3549 46.9484 32.6516 47.6516C31.9484 48.3549 30.9946 48.75 30 48.75C29.0054 48.75 28.0516 48.3549 27.3484 47.6516C26.6451 46.9484 26.25 45.9946 26.25 45V37.5ZM37.5 37.5C37.5 36.5054 37.8951 35.5516 38.5984 34.8484C39.3016 34.1451 40.2554 33.75 41.25 33.75C42.2446 33.75 43.1984 34.1451 43.9016 34.8484C44.6049 35.5516 45 36.5054 45 37.5V45C45 45.9946 44.6049 46.9484 43.9016 47.6516C43.1984 48.3549 42.2446 48.75 41.25 48.75C40.2554 48.75 39.3016 48.3549 38.5984 47.6516C37.8951 46.9484 37.5 45.9946 37.5 45V37.5Z" fill="#6574CD"/>
<path d="M21.5887 4.01622C21.8 4.14275 21.9843 4.30967 22.1311 4.50744C22.2779 4.70522 22.3843 4.92997 22.4442 5.16886C22.5041 5.40775 22.5163 5.6561 22.4802 5.89972C22.4441 6.14335 22.3604 6.37747 22.2337 6.58872L12.6862 22.5H47.3137L37.7625 6.58872C37.5069 6.16206 37.4313 5.65133 37.5522 5.16889C37.6732 4.68645 37.9808 4.27183 38.4075 4.01622C38.8342 3.76062 39.3449 3.68498 39.8273 3.80594C40.3098 3.9269 40.7244 4.23456 40.98 4.66122L51.6862 22.5H58.125C58.6223 22.5 59.0992 22.6975 59.4508 23.0491C59.8025 23.4008 60 23.8777 60 24.375V28.125C60 28.6223 59.8025 29.0992 59.4508 29.4508C59.0992 29.8024 58.6223 30 58.125 30H55.7887L48.8737 54.21C48.7057 54.7982 48.3505 55.3156 47.8619 55.6837C47.3733 56.0519 46.778 56.2507 46.1662 56.25H13.8375C13.2257 56.2507 12.6304 56.0519 12.1419 55.6837C11.6533 55.3156 11.298 54.7982 11.13 54.21L4.21125 30H1.875C1.37772 30 0.900806 29.8024 0.549175 29.4508C0.197544 29.0992 0 28.6223 0 28.125V24.375C0 23.8777 0.197544 23.4008 0.549175 23.0491C0.900806 22.6975 1.37772 22.5 1.875 22.5H8.31375L19.0125 4.66122C19.139 4.44993 19.3059 4.26563 19.5037 4.11885C19.7015 3.97208 19.9262 3.8657 20.1651 3.80581C20.404 3.74591 20.6524 3.73366 20.896 3.76977C21.1396 3.80587 21.3775 3.88962 21.5887 4.01622ZM8.11125 30L14.5388 52.5H45.4613L51.8887 30H8.11125Z" fill="#6574CD"/>
</svg>
