<svg width="80" height="80" viewBox="0 0 80 80" fill="none" xmlns="http://www.w3.org/2000/svg">
<g clip-path="url(#clip0_713_857)">
<path d="M5.80522 40C5.80522 46.7637 7.81076 53.3755 11.5683 58.9995C15.3258 64.6234 20.6665 69.0069 26.9151 71.5957C33.1638 74.1845 40.0398 74.8624 46.6736 73.5436C53.3075 72.2248 59.4014 68.9685 64.1847 64.1866C68.9681 59.4046 72.2261 53.3117 73.5469 46.6782C74.8676 40.0447 74.1918 33.1686 71.6048 26.9192C69.0178 20.6697 64.6358 15.3277 59.013 11.5686C53.3902 7.80945 46.7789 5.80198 40.0152 5.8C39.2461 5.8 38.5085 5.49447 37.9646 4.95061C37.4208 4.40675 37.1152 3.66913 37.1152 2.9C37.1152 2.13087 37.4208 1.39325 37.9646 0.84939C38.5085 0.305535 39.2461 0 40.0152 0C48.9694 0.00263619 57.6638 3.00959 64.7064 8.53944C71.7489 14.0693 76.7324 21.8022 78.859 30.5002C80.9856 39.1982 80.1322 48.3582 76.4355 56.5137C72.7389 64.6692 66.4127 71.3485 58.4698 75.4823C50.527 79.6161 41.4268 80.9652 32.6262 79.3138C23.8256 77.6624 15.8336 73.1059 9.92976 66.3737C4.02588 59.6416 0.551557 51.1232 0.0630233 42.1824C-0.425511 33.2415 2.1 24.3953 7.23522 17.06L3.92022 14.175C3.52426 13.8307 3.22912 13.3855 3.06625 12.8867C2.90338 12.3879 2.87888 11.8543 2.99536 11.3427C3.11185 10.8311 3.36495 10.3607 3.72769 9.9816C4.09044 9.6025 4.54925 9.32891 5.05522 9.19L17.6552 5.74C18.1155 5.61442 18.5996 5.60433 19.0647 5.71062C19.5297 5.8169 19.9614 6.03628 20.3214 6.34931C20.6814 6.66234 20.9586 7.05935 21.1285 7.50515C21.2984 7.95095 21.3556 8.43177 21.2952 8.905L19.6352 21.865C19.5686 22.3858 19.3618 22.8788 19.0369 23.2913C18.7121 23.7039 18.2813 24.0204 17.7906 24.2073C17.2998 24.3941 16.7676 24.4442 16.2506 24.3522C15.7337 24.2603 15.2514 24.0296 14.8552 23.685L11.6402 20.885C7.8224 26.5277 5.7878 33.1871 5.80022 40H5.80522Z" fill="#6574CD"/>
<path d="M33.205 58.3552V44.2152H41.055L48.545 58.3552H55.115L46.885 43.3252C51.37 41.8252 54.02 37.7952 54.02 32.8252C54.02 25.9752 49.305 21.5952 41.74 21.5952H27.5V58.3552H33.205ZM33.205 39.6052V26.3852H41.055C45.46 26.3852 48.135 28.8802 48.135 32.9852C48.135 37.1852 45.615 39.6052 41.205 39.6052H33.205Z" fill="#6574CD"/>
</g>
<defs>
<clipPath id="clip0_713_857">
<rect width="80" height="80" fill="white"/>
</clipPath>
</defs>
</svg>
