<svg width="60" height="60" viewBox="0 0 60 60" fill="none" xmlns="http://www.w3.org/2000/svg">
<path d="M37.5 50.625C37.5 51.1223 37.6975 51.5992 38.0492 51.9508C38.4008 52.3025 38.8777 52.5 39.375 52.5H43.125C43.6223 52.5 44.0992 52.3025 44.4508 51.9508C44.8025 51.5992 45 51.1223 45 50.625V28.125C45 27.6277 44.8025 27.1508 44.4508 26.7992C44.0992 26.4475 43.6223 26.25 43.125 26.25H39.375C38.8777 26.25 38.4008 26.4475 38.0492 26.7992C37.6975 27.1508 37.5 27.6277 37.5 28.125V50.625ZM28.125 52.5C27.6277 52.5 27.1508 52.3025 26.7992 51.9508C26.4475 51.5992 26.25 51.1223 26.25 50.625V35.625C26.25 35.1277 26.4475 34.6508 26.7992 34.2992C27.1508 33.9475 27.6277 33.75 28.125 33.75H31.875C32.3723 33.75 32.8492 33.9475 33.2008 34.2992C33.5525 34.6508 33.75 35.1277 33.75 35.625V50.625C33.75 51.1223 33.5525 51.5992 33.2008 51.9508C32.8492 52.3025 32.3723 52.5 31.875 52.5H28.125ZM16.875 52.5C16.3777 52.5 15.9008 52.3025 15.5492 51.9508C15.1975 51.5992 15 51.1223 15 50.625V43.125C15 42.6277 15.1975 42.1508 15.5492 41.7992C15.9008 41.4475 16.3777 41.25 16.875 41.25H20.625C21.1223 41.25 21.5992 41.4475 21.9508 41.7992C22.3025 42.1508 22.5 42.6277 22.5 43.125V50.625C22.5 51.1223 22.3025 51.5992 21.9508 51.9508C21.5992 52.3025 21.1223 52.5 20.625 52.5H16.875Z" fill="#6574CD"/>
<path d="M52.5 52.5V16.875L35.625 0H15C13.0109 0 11.1032 0.790176 9.6967 2.1967C8.29018 3.60322 7.5 5.51088 7.5 7.5V52.5C7.5 54.4891 8.29018 56.3968 9.6967 57.8033C11.1032 59.2098 13.0109 60 15 60H45C46.9891 60 48.8968 59.2098 50.3033 57.8033C51.7098 56.3968 52.5 54.4891 52.5 52.5ZM35.625 11.25C35.625 12.7418 36.2176 14.1726 37.2725 15.2275C38.3274 16.2824 39.7582 16.875 41.25 16.875H48.75V52.5C48.75 53.4946 48.3549 54.4484 47.6516 55.1516C46.9484 55.8549 45.9946 56.25 45 56.25H15C14.0054 56.25 13.0516 55.8549 12.3483 55.1516C11.6451 54.4484 11.25 53.4946 11.25 52.5V7.5C11.25 6.50544 11.6451 5.55161 12.3483 4.84835C13.0516 4.14509 14.0054 3.75 15 3.75H35.625V11.25Z" fill="#6574CD"/>
</svg>
