<svg width="60" height="60" viewBox="0 0 60 60" fill="none" xmlns="http://www.w3.org/2000/svg">
<path d="M26.4375 44.5687C26.4375 49.875 24.3825 52.8412 20.7225 52.8412C17.055 52.8375 15 49.875 15 44.5687C15 39.2737 17.055 36.3075 20.7225 36.3075C24.3825 36.3075 26.4375 39.27 26.4375 44.5687ZM20.7225 38.5237C18.69 38.5237 17.6025 40.635 17.6025 44.5687C17.6025 44.9012 17.61 45.2162 17.625 45.5137L23.4712 41.2275C22.9987 39.45 22.065 38.5275 20.7225 38.5275V38.5237ZM17.9775 47.9287C18.45 49.6987 19.3725 50.6212 20.7225 50.6212C22.7475 50.6212 23.835 48.51 23.835 44.5687C23.835 44.2462 23.8275 43.9337 23.8125 43.6312L17.9775 47.9287ZM40.7062 50.2687V52.5H29.4563V50.2687H33.885V39.375H33.6975L29.4375 42.1762V39.5962L33.9 36.6487H36.4875V50.2725L40.7062 50.2687Z" fill="#6574CD"/>
<path d="M52.5 52.5V16.875L35.625 0H15C13.0109 0 11.1032 0.790176 9.6967 2.1967C8.29018 3.60322 7.5 5.51088 7.5 7.5V52.5C7.5 54.4891 8.29018 56.3968 9.6967 57.8033C11.1032 59.2098 13.0109 60 15 60H45C46.9891 60 48.8968 59.2098 50.3033 57.8033C51.7098 56.3968 52.5 54.4891 52.5 52.5ZM35.625 11.25C35.625 12.7418 36.2176 14.1726 37.2725 15.2275C38.3274 16.2824 39.7582 16.875 41.25 16.875H48.75V52.5C48.75 53.4946 48.3549 54.4484 47.6516 55.1516C46.9484 55.8549 45.9946 56.25 45 56.25H15C14.0054 56.25 13.0516 55.8549 12.3483 55.1516C11.6451 54.4484 11.25 53.4946 11.25 52.5V7.5C11.25 6.50544 11.6451 5.55161 12.3483 4.84835C13.0516 4.14509 14.0054 3.75 15 3.75H35.625V11.25Z" fill="#6574CD"/>
</svg>
