<svg width="60" height="60" viewBox="0 0 60 60" fill="none" xmlns="http://www.w3.org/2000/svg">
<path d="M22.5 3.75H3.75V56.25H22.5V3.75ZM56.25 3.75H37.5V22.5H56.25V3.75ZM56.25 37.5V56.25H37.5V37.5H56.25ZM0 3.75C0 2.75544 0.395088 1.80161 1.09835 1.09835C1.80161 0.395088 2.75544 0 3.75 0L22.5 0C23.4946 0 24.4484 0.395088 25.1516 1.09835C25.8549 1.80161 26.25 2.75544 26.25 3.75V56.25C26.25 57.2446 25.8549 58.1984 25.1516 58.9016C24.4484 59.6049 23.4946 60 22.5 60H3.75C2.75544 60 1.80161 59.6049 1.09835 58.9016C0.395088 58.1984 0 57.2446 0 56.25V3.75ZM33.75 3.75C33.75 2.75544 34.1451 1.80161 34.8484 1.09835C35.5516 0.395088 36.5054 0 37.5 0L56.25 0C57.2446 0 58.1984 0.395088 58.9016 1.09835C59.6049 1.80161 60 2.75544 60 3.75V22.5C60 23.4946 59.6049 24.4484 58.9016 25.1516C58.1984 25.8549 57.2446 26.25 56.25 26.25H37.5C36.5054 26.25 35.5516 25.8549 34.8484 25.1516C34.1451 24.4484 33.75 23.4946 33.75 22.5V3.75ZM37.5 33.75C36.5054 33.75 35.5516 34.1451 34.8484 34.8484C34.1451 35.5516 33.75 36.5054 33.75 37.5V56.25C33.75 57.2446 34.1451 58.1984 34.8484 58.9016C35.5516 59.6049 36.5054 60 37.5 60H56.25C57.2446 60 58.1984 59.6049 58.9016 58.9016C59.6049 58.1984 60 57.2446 60 56.25V37.5C60 36.5054 59.6049 35.5516 58.9016 34.8484C58.1984 34.1451 57.2446 33.75 56.25 33.75H37.5Z" fill="#6574CD"/>
</svg>
