<svg width="60" height="60" viewBox="0 0 60 60" fill="none" xmlns="http://www.w3.org/2000/svg">
<path d="M3.75 9.375C3.75 7.88316 4.34263 6.45242 5.39752 5.39752C6.45242 4.34263 7.88316 3.75 9.375 3.75H20.625C22.1168 3.75 23.5476 4.34263 24.6025 5.39752C25.6574 6.45242 26.25 7.88316 26.25 9.375V20.625C26.25 22.1168 25.6574 23.5476 24.6025 24.6025C23.5476 25.6574 22.1168 26.25 20.625 26.25H9.375C7.88316 26.25 6.45242 25.6574 5.39752 24.6025C4.34263 23.5476 3.75 22.1168 3.75 20.625V9.375ZM9.375 7.5C8.87772 7.5 8.40081 7.69754 8.04918 8.04918C7.69754 8.40081 7.5 8.87772 7.5 9.375V20.625C7.5 21.1223 7.69754 21.5992 8.04918 21.9508C8.40081 22.3025 8.87772 22.5 9.375 22.5H20.625C21.1223 22.5 21.5992 22.3025 21.9508 21.9508C22.3025 21.5992 22.5 21.1223 22.5 20.625V9.375C22.5 8.87772 22.3025 8.40081 21.9508 8.04918C21.5992 7.69754 21.1223 7.5 20.625 7.5H9.375ZM33.75 9.375C33.75 7.88316 34.3426 6.45242 35.3975 5.39752C36.4524 4.34263 37.8832 3.75 39.375 3.75H50.625C52.1168 3.75 53.5476 4.34263 54.6025 5.39752C55.6574 6.45242 56.25 7.88316 56.25 9.375V20.625C56.25 22.1168 55.6574 23.5476 54.6025 24.6025C53.5476 25.6574 52.1168 26.25 50.625 26.25H39.375C37.8832 26.25 36.4524 25.6574 35.3975 24.6025C34.3426 23.5476 33.75 22.1168 33.75 20.625V9.375ZM39.375 7.5C38.8777 7.5 38.4008 7.69754 38.0492 8.04918C37.6975 8.40081 37.5 8.87772 37.5 9.375V20.625C37.5 21.1223 37.6975 21.5992 38.0492 21.9508C38.4008 22.3025 38.8777 22.5 39.375 22.5H50.625C51.1223 22.5 51.5992 22.3025 51.9508 21.9508C52.3025 21.5992 52.5 21.1223 52.5 20.625V9.375C52.5 8.87772 52.3025 8.40081 51.9508 8.04918C51.5992 7.69754 51.1223 7.5 50.625 7.5H39.375ZM3.75 39.375C3.75 37.8832 4.34263 36.4524 5.39752 35.3975C6.45242 34.3426 7.88316 33.75 9.375 33.75H20.625C22.1168 33.75 23.5476 34.3426 24.6025 35.3975C25.6574 36.4524 26.25 37.8832 26.25 39.375V50.625C26.25 52.1168 25.6574 53.5476 24.6025 54.6025C23.5476 55.6574 22.1168 56.25 20.625 56.25H9.375C7.88316 56.25 6.45242 55.6574 5.39752 54.6025C4.34263 53.5476 3.75 52.1168 3.75 50.625V39.375ZM9.375 37.5C8.87772 37.5 8.40081 37.6975 8.04918 38.0492C7.69754 38.4008 7.5 38.8777 7.5 39.375V50.625C7.5 51.1223 7.69754 51.5992 8.04918 51.9508C8.40081 52.3025 8.87772 52.5 9.375 52.5H20.625C21.1223 52.5 21.5992 52.3025 21.9508 51.9508C22.3025 51.5992 22.5 51.1223 22.5 50.625V39.375C22.5 38.8777 22.3025 38.4008 21.9508 38.0492C21.5992 37.6975 21.1223 37.5 20.625 37.5H9.375ZM33.75 39.375C33.75 37.8832 34.3426 36.4524 35.3975 35.3975C36.4524 34.3426 37.8832 33.75 39.375 33.75H50.625C52.1168 33.75 53.5476 34.3426 54.6025 35.3975C55.6574 36.4524 56.25 37.8832 56.25 39.375V50.625C56.25 52.1168 55.6574 53.5476 54.6025 54.6025C53.5476 55.6574 52.1168 56.25 50.625 56.25H39.375C37.8832 56.25 36.4524 55.6574 35.3975 54.6025C34.3426 53.5476 33.75 52.1168 33.75 50.625V39.375ZM39.375 37.5C38.8777 37.5 38.4008 37.6975 38.0492 38.0492C37.6975 38.4008 37.5 38.8777 37.5 39.375V50.625C37.5 51.1223 37.6975 51.5992 38.0492 51.9508C38.4008 52.3025 38.8777 52.5 39.375 52.5H50.625C51.1223 52.5 51.5992 52.3025 51.9508 51.9508C52.3025 51.5992 52.5 51.1223 52.5 50.625V39.375C52.5 38.8777 52.3025 38.4008 51.9508 38.0492C51.5992 37.6975 51.1223 37.5 50.625 37.5H39.375Z" fill="#6574CD"/>
</svg>
