<svg width="80" height="80" viewBox="0 0 80 80" fill="none" xmlns="http://www.w3.org/2000/svg">
<path d="M25 0H65C67.6522 0 70.1957 1.05357 72.0711 2.92893C73.9464 4.8043 75 7.34784 75 10V60C75 62.6522 73.9464 65.1957 72.0711 67.0711C70.1957 68.9464 67.6522 70 65 70C65 72.6522 63.9464 75.1957 62.0711 77.0711C60.1957 78.9464 57.6522 80 55 80H15C12.3478 80 9.8043 78.9464 7.92893 77.0711C6.05357 75.1957 5 72.6522 5 70H10C10 71.3261 10.5268 72.5979 11.4645 73.5355C12.4021 74.4732 13.6739 75 15 75H55C56.3261 75 57.5979 74.4732 58.5355 73.5355C59.4732 72.5979 60 71.3261 60 70V20C60 18.6739 59.4732 17.4021 58.5355 16.4645C57.5979 15.5268 56.3261 15 55 15H15C13.6739 15 12.4021 15.5268 11.4645 16.4645C10.5268 17.4021 10 18.6739 10 20H5C5 17.3478 6.05357 14.8043 7.92893 12.9289C9.8043 11.0536 12.3478 10 15 10H55C57.6522 10 60.1957 11.0536 62.0711 12.9289C63.9464 14.8043 65 17.3478 65 20V65C66.3261 65 67.5979 64.4732 68.5355 63.5355C69.4732 62.5979 70 61.3261 70 60V10C70 8.67392 69.4732 7.40215 68.5355 6.46447C67.5979 5.52678 66.3261 5 65 5H25C23.6739 5 22.4021 5.52678 21.4645 6.46447C20.5268 7.40215 20 8.67392 20 10H15C15 7.34784 16.0536 4.8043 17.9289 2.92893C19.8043 1.05357 22.3478 0 25 0Z" fill="#6574CD"/>
<path d="M5 30V27.5C5 26.837 5.26339 26.2011 5.73223 25.7322C6.20107 25.2634 6.83696 25 7.5 25C8.16304 25 8.79893 25.2634 9.26777 25.7322C9.73661 26.2011 10 26.837 10 27.5V30H12.5C13.163 30 13.7989 30.2634 14.2678 30.7322C14.7366 31.2011 15 31.837 15 32.5C15 33.163 14.7366 33.7989 14.2678 34.2678C13.7989 34.7366 13.163 35 12.5 35H2.5C1.83696 35 1.20107 34.7366 0.732233 34.2678C0.263392 33.7989 0 33.163 0 32.5C0 31.837 0.263392 31.2011 0.732233 30.7322C1.20107 30.2634 1.83696 30 2.5 30H5ZM5 45V42.5C5 41.837 5.26339 41.2011 5.73223 40.7322C6.20107 40.2634 6.83696 40 7.5 40C8.16304 40 8.79893 40.2634 9.26777 40.7322C9.73661 41.2011 10 41.837 10 42.5V45H12.5C13.163 45 13.7989 45.2634 14.2678 45.7322C14.7366 46.2011 15 46.837 15 47.5C15 48.163 14.7366 48.7989 14.2678 49.2678C13.7989 49.7366 13.163 50 12.5 50H2.5C1.83696 50 1.20107 49.7366 0.732233 49.2678C0.263392 48.7989 0 48.163 0 47.5C0 46.837 0.263392 46.2011 0.732233 45.7322C1.20107 45.2634 1.83696 45 2.5 45H5ZM5 57.5V60H2.5C1.83696 60 1.20107 60.2634 0.732233 60.7322C0.263392 61.2011 0 61.837 0 62.5C0 63.163 0.263392 63.7989 0.732233 64.2678C1.20107 64.7366 1.83696 65 2.5 65H12.5C13.163 65 13.7989 64.7366 14.2678 64.2678C14.7366 63.7989 15 63.163 15 62.5C15 61.837 14.7366 61.2011 14.2678 60.7322C13.7989 60.2634 13.163 60 12.5 60H10V57.5C10 56.837 9.73661 56.2011 9.26777 55.7322C8.79893 55.2634 8.16304 55 7.5 55C6.83696 55 6.20107 55.2634 5.73223 55.7322C5.26339 56.2011 5 56.837 5 57.5Z" fill="#6574CD"/>
</svg>
