<svg width="60" height="60" viewBox="0 0 60 60" fill="none" xmlns="http://www.w3.org/2000/svg">
<path d="M20.625 18.75C20.1277 18.75 19.6508 18.9475 19.2992 19.2992C18.9475 19.6508 18.75 20.1277 18.75 20.625C18.75 21.1223 18.9475 21.5992 19.2992 21.9508C19.6508 22.3025 20.1277 22.5 20.625 22.5H39.375C39.8723 22.5 40.3492 22.3025 40.7008 21.9508C41.0525 21.5992 41.25 21.1223 41.25 20.625C41.25 20.1277 41.0525 19.6508 40.7008 19.2992C40.3492 18.9475 39.8723 18.75 39.375 18.75H20.625ZM20.625 26.25C20.1277 26.25 19.6508 26.4475 19.2992 26.7992C18.9475 27.1508 18.75 27.6277 18.75 28.125C18.75 28.6223 18.9475 29.0992 19.2992 29.4508C19.6508 29.8025 20.1277 30 20.625 30H31.875C32.3723 30 32.8492 29.8025 33.2008 29.4508C33.5525 29.0992 33.75 28.6223 33.75 28.125C33.75 27.6277 33.5525 27.1508 33.2008 26.7992C32.8492 26.4475 32.3723 26.25 31.875 26.25H20.625Z" fill="#6574CD"/>
<path d="M30 7.5C31.9891 7.5 33.8968 6.70982 35.3033 5.3033C36.7098 3.89678 37.5 1.98912 37.5 0H46.875C48.3668 0 49.7976 0.592632 50.8525 1.64752C51.9074 2.70242 52.5 4.13316 52.5 5.625V54.375C52.5 55.8668 51.9074 57.2976 50.8525 58.3525C49.7976 59.4074 48.3668 60 46.875 60H13.125C11.6332 60 10.2024 59.4074 9.14752 58.3525C8.09263 57.2976 7.5 55.8668 7.5 54.375V5.625C7.5 4.13316 8.09263 2.70242 9.14752 1.64752C10.2024 0.592632 11.6332 0 13.125 0L22.5 0C22.5 1.98912 23.2902 3.89678 24.6967 5.3033C26.1032 6.70982 28.0109 7.5 30 7.5ZM30 11.25C27.6726 11.2512 25.402 10.5305 23.5013 9.18729C21.6006 7.84404 20.1633 5.94434 19.3875 3.75H13.125C12.6277 3.75 12.1508 3.94754 11.7992 4.29917C11.4475 4.65081 11.25 5.12772 11.25 5.625V54.375C11.25 54.8723 11.4475 55.3492 11.7992 55.7008C12.1508 56.0525 12.6277 56.25 13.125 56.25H46.875C47.3723 56.25 47.8492 56.0525 48.2008 55.7008C48.5525 55.3492 48.75 54.8723 48.75 54.375V5.625C48.75 5.12772 48.5525 4.65081 48.2008 4.29917C47.8492 3.94754 47.3723 3.75 46.875 3.75H40.6125C39.8367 5.94434 38.3994 7.84404 36.4987 9.18729C34.598 10.5305 32.3274 11.2512 30 11.25Z" fill="#6574CD"/>
</svg>
